<svg width="525" height="400" viewBox="0 0 525 400" fill="none" xmlns="http://www.w3.org/2000/svg">
<path d="M215 392V8H342.09C376.955 8 408.299 15.7363 436.119 31.2088C463.94 46.5055 485.618 68.2198 501.154 96.3517C516.871 124.308 524.82 155.692 525 190.506V208.176C525 243.341 517.323 274.901 501.967 302.857C486.792 330.637 465.295 352.44 437.474 368.264C409.834 383.912 378.943 391.824 344.799 392H215ZM310.114 79.4725V320.791H343.173C370.452 320.791 391.408 311.385 406.041 292.571C420.673 273.582 427.99 245.451 427.99 208.176V191.56C427.99 154.462 420.673 126.506 406.041 107.692C391.408 88.8791 370.091 79.4725 342.09 79.4725H310.114Z" fill="#FFE976"/>
<path d="M0 400L2.25173e-05 141.734C2.50691e-05 112.466 6.21624 87.0821 18.6487 65.5826C31.0811 44.2637 48.9189 28.0035 72.1622 16.8021C95.4054 5.60066 122.883 -6.3815e-05 154.595 -6.10352e-05C202.523 -5.68338e-05 240.27 12.4661 267.838 37.3983C295.405 62.3306 309.459 96.4769 310 139.837L310 400L214.595 400L214.595 137.94C213.514 94.7606 193.514 73.1707 154.595 73.1707C134.955 73.1707 120.09 78.5907 110 89.4308C99.9099 100.271 94.8649 117.886 94.8649 142.276L94.8649 400H0Z" fill="#046FDB"/>
</svg>
